<mxfile host="app.diagrams.net" modified="2020-06-07T17:17:39.453Z" agent="5.0 (X11)" etag="S2OjThvNKIptz2zibTJw" version="13.1.14" type="github" pages="2">
  <diagram id="VNQN-A_5LExtimgI36Wb" name="Page-1">
    <mxGraphModel dx="868" dy="432" grid="1" gridSize="10" guides="1" tooltips="1" connect="1" arrows="1" fold="1" page="1" pageScale="1" pageWidth="850" pageHeight="1100" math="0" shadow="0">
      <root>
        <mxCell id="0" />
        <mxCell id="1" parent="0" />
        <mxCell id="rWHNstwwN9StHIttHpY2-1" value="" style="rounded=0;whiteSpace=wrap;html=1;" parent="1" vertex="1">
          <mxGeometry x="90" y="60" width="700" height="190" as="geometry" />
        </mxCell>
        <mxCell id="rWHNstwwN9StHIttHpY2-2" value="" style="shape=mxgraph.signs.travel.bank;html=1;fillColor=#000000;strokeColor=none;verticalLabelPosition=bottom;verticalAlign=top;align=center;" parent="1" vertex="1">
          <mxGeometry x="110" y="110" width="99" height="86" as="geometry" />
        </mxCell>
        <mxCell id="rWHNstwwN9StHIttHpY2-11" value="Deposit" style="html=1;shadow=0;dashed=0;align=center;verticalAlign=middle;shape=mxgraph.arrows2.arrow;dy=0.6;dx=40;notch=0;" parent="1" vertex="1">
          <mxGeometry x="220" y="126" width="110" height="70" as="geometry" />
        </mxCell>
        <mxCell id="rWHNstwwN9StHIttHpY2-14" value="" style="rounded=1;whiteSpace=wrap;html=1;" parent="1" vertex="1">
          <mxGeometry x="340" y="90" width="430" height="126" as="geometry" />
        </mxCell>
        <mxCell id="rWHNstwwN9StHIttHpY2-6" value="&lt;div&gt;USDT&lt;/div&gt;&lt;div&gt;0x2e2e2e2e2e2e2e2e&lt;/div&gt;&lt;div&gt;$9000&lt;br&gt;&lt;/div&gt;" style="rounded=0;whiteSpace=wrap;html=1;" parent="1" vertex="1">
          <mxGeometry x="350" y="118" width="200" height="90" as="geometry" />
        </mxCell>
        <mxCell id="rWHNstwwN9StHIttHpY2-5" value="" style="shape=image;html=1;verticalAlign=top;verticalLabelPosition=bottom;labelBackgroundColor=#ffffff;imageAspect=0;aspect=fixed;image=https://cdn0.iconfinder.com/data/icons/cryptocurrency-blockchain-fintech-free/32/currency_dollar_currency_money-128.png" parent="1" vertex="1">
          <mxGeometry x="350" y="110" width="48" height="48" as="geometry" />
        </mxCell>
        <mxCell id="rWHNstwwN9StHIttHpY2-7" value="&lt;div&gt;BTC&lt;br&gt;&lt;/div&gt;&lt;div&gt;bc1mmmmmmmmm&lt;/div&gt;&lt;div&gt;0.00000000฿&lt;br&gt;&lt;/div&gt;" style="rounded=0;whiteSpace=wrap;html=1;" parent="1" vertex="1">
          <mxGeometry x="560" y="118" width="200" height="90" as="geometry" />
        </mxCell>
        <mxCell id="rWHNstwwN9StHIttHpY2-3" value="" style="shape=image;html=1;verticalAlign=top;verticalLabelPosition=bottom;labelBackgroundColor=#ffffff;imageAspect=0;aspect=fixed;image=https://cdn0.iconfinder.com/data/icons/blockchain-classic/258/Bitcoin-128.png" parent="1" vertex="1">
          <mxGeometry x="560" y="118" width="30" height="30" as="geometry" />
        </mxCell>
        <mxCell id="rWHNstwwN9StHIttHpY2-15" value="Target $9000" style="text;html=1;strokeColor=none;fillColor=none;align=center;verticalAlign=middle;whiteSpace=wrap;rounded=0;" parent="1" vertex="1">
          <mxGeometry x="440" y="98" width="210" height="20" as="geometry" />
        </mxCell>
        <mxCell id="rWHNstwwN9StHIttHpY2-19" value="&lt;span style=&quot;background-color: rgb(255 , 255 , 255)&quot;&gt;&lt;font style=&quot;font-size: 16px&quot; color=&quot;#007FFF&quot;&gt;&lt;b&gt;$500&lt;/b&gt;&lt;/font&gt;&lt;/span&gt;" style="text;html=1;strokeColor=none;fillColor=none;align=center;verticalAlign=middle;whiteSpace=wrap;rounded=0;" parent="1" vertex="1">
          <mxGeometry x="506.25" y="172" width="97.5" height="36" as="geometry" />
        </mxCell>
        <mxCell id="rWHNstwwN9StHIttHpY2-20" value="&lt;font style=&quot;font-size: 16px&quot;&gt;&lt;b&gt;&lt;font style=&quot;font-size: 16px&quot; color=&quot;#006600&quot;&gt;+$9000&lt;/font&gt;&lt;/b&gt;&lt;/font&gt;" style="text;html=1;strokeColor=none;fillColor=none;align=center;verticalAlign=middle;whiteSpace=wrap;rounded=0;" parent="1" vertex="1">
          <mxGeometry x="210" y="118" width="97.5" height="36" as="geometry" />
        </mxCell>
      </root>
    </mxGraphModel>
  </diagram>
  <diagram id="RwkJRc3FSZ5FoTukcWwF" name="Page-2">
    <mxGraphModel dx="868" dy="432" grid="1" gridSize="10" guides="1" tooltips="1" connect="1" arrows="1" fold="1" page="1" pageScale="1" pageWidth="850" pageHeight="1100" math="0" shadow="0">
      <root>
        <mxCell id="mtOxxx0Fri_VdfMQ4Gxs-0" />
        <mxCell id="mtOxxx0Fri_VdfMQ4Gxs-1" parent="mtOxxx0Fri_VdfMQ4Gxs-0" />
        <mxCell id="mtOxxx0Fri_VdfMQ4Gxs-2" value="" style="rounded=0;whiteSpace=wrap;html=1;" vertex="1" parent="mtOxxx0Fri_VdfMQ4Gxs-1">
          <mxGeometry x="80" y="80" width="710" height="580" as="geometry" />
        </mxCell>
        <mxCell id="mtOxxx0Fri_VdfMQ4Gxs-3" value="" style="shape=mxgraph.signs.travel.bank;html=1;fillColor=#000000;strokeColor=none;verticalLabelPosition=bottom;verticalAlign=top;align=center;" vertex="1" parent="mtOxxx0Fri_VdfMQ4Gxs-1">
          <mxGeometry x="94" y="110" width="99" height="86" as="geometry" />
        </mxCell>
        <mxCell id="mtOxxx0Fri_VdfMQ4Gxs-4" value="Deposit" style="html=1;shadow=0;dashed=0;align=center;verticalAlign=middle;shape=mxgraph.arrows2.arrow;dy=0.6;dx=40;notch=0;" vertex="1" parent="mtOxxx0Fri_VdfMQ4Gxs-1">
          <mxGeometry x="204" y="126" width="110" height="70" as="geometry" />
        </mxCell>
        <mxCell id="mtOxxx0Fri_VdfMQ4Gxs-5" value="" style="rounded=1;whiteSpace=wrap;html=1;" vertex="1" parent="mtOxxx0Fri_VdfMQ4Gxs-1">
          <mxGeometry x="340" y="90" width="430" height="126" as="geometry" />
        </mxCell>
        <mxCell id="mtOxxx0Fri_VdfMQ4Gxs-6" value="&lt;div&gt;USDT&lt;/div&gt;&lt;div&gt;0x2e2e2e2e2e2e2e2e&lt;/div&gt;&lt;div&gt;$9000&lt;br&gt;&lt;/div&gt;" style="rounded=0;whiteSpace=wrap;html=1;" vertex="1" parent="mtOxxx0Fri_VdfMQ4Gxs-1">
          <mxGeometry x="350" y="118" width="200" height="90" as="geometry" />
        </mxCell>
        <mxCell id="mtOxxx0Fri_VdfMQ4Gxs-7" value="" style="shape=image;html=1;verticalAlign=top;verticalLabelPosition=bottom;labelBackgroundColor=#ffffff;imageAspect=0;aspect=fixed;image=https://cdn0.iconfinder.com/data/icons/cryptocurrency-blockchain-fintech-free/32/currency_dollar_currency_money-128.png" vertex="1" parent="mtOxxx0Fri_VdfMQ4Gxs-1">
          <mxGeometry x="350" y="110" width="48" height="48" as="geometry" />
        </mxCell>
        <mxCell id="mtOxxx0Fri_VdfMQ4Gxs-8" value="&lt;div&gt;BTC&lt;br&gt;&lt;/div&gt;&lt;div&gt;bc1mmmmmmmmm&lt;/div&gt;&lt;div&gt;0.00000000฿&lt;br&gt;&lt;/div&gt;" style="rounded=0;whiteSpace=wrap;html=1;" vertex="1" parent="mtOxxx0Fri_VdfMQ4Gxs-1">
          <mxGeometry x="560" y="118" width="200" height="90" as="geometry" />
        </mxCell>
        <mxCell id="mtOxxx0Fri_VdfMQ4Gxs-9" value="" style="shape=image;html=1;verticalAlign=top;verticalLabelPosition=bottom;labelBackgroundColor=#ffffff;imageAspect=0;aspect=fixed;image=https://cdn0.iconfinder.com/data/icons/blockchain-classic/258/Bitcoin-128.png" vertex="1" parent="mtOxxx0Fri_VdfMQ4Gxs-1">
          <mxGeometry x="560" y="118" width="30" height="30" as="geometry" />
        </mxCell>
        <mxCell id="mtOxxx0Fri_VdfMQ4Gxs-10" value="Target $9000" style="text;html=1;strokeColor=none;fillColor=none;align=center;verticalAlign=middle;whiteSpace=wrap;rounded=0;" vertex="1" parent="mtOxxx0Fri_VdfMQ4Gxs-1">
          <mxGeometry x="440" y="98" width="210" height="20" as="geometry" />
        </mxCell>
        <mxCell id="mtOxxx0Fri_VdfMQ4Gxs-11" value="&lt;span style=&quot;background-color: rgb(255 , 255 , 255)&quot;&gt;&lt;font style=&quot;font-size: 16px&quot; color=&quot;#007FFF&quot;&gt;&lt;b&gt;$250&lt;/b&gt;&lt;/font&gt;&lt;/span&gt;" style="text;html=1;strokeColor=none;fillColor=none;align=center;verticalAlign=middle;whiteSpace=wrap;rounded=0;" vertex="1" parent="mtOxxx0Fri_VdfMQ4Gxs-1">
          <mxGeometry x="506.25" y="172" width="97.5" height="36" as="geometry" />
        </mxCell>
        <mxCell id="mtOxxx0Fri_VdfMQ4Gxs-12" value="&lt;font style=&quot;font-size: 16px&quot;&gt;&lt;b&gt;&lt;font style=&quot;font-size: 16px&quot; color=&quot;#006600&quot;&gt;+$9000&lt;/font&gt;&lt;/b&gt;&lt;/font&gt;" style="text;html=1;strokeColor=none;fillColor=none;align=center;verticalAlign=middle;whiteSpace=wrap;rounded=0;" vertex="1" parent="mtOxxx0Fri_VdfMQ4Gxs-1">
          <mxGeometry x="194" y="118" width="97.5" height="36" as="geometry" />
        </mxCell>
        <mxCell id="mtOxxx0Fri_VdfMQ4Gxs-13" value="&lt;font style=&quot;font-size: 24px&quot;&gt;&lt;b&gt;BTC price: $8250&lt;/b&gt;&lt;/font&gt;" style="text;html=1;strokeColor=none;fillColor=none;align=center;verticalAlign=middle;whiteSpace=wrap;rounded=0;" vertex="1" parent="mtOxxx0Fri_VdfMQ4Gxs-1">
          <mxGeometry x="432.5" y="50" width="255" height="20" as="geometry" />
        </mxCell>
        <mxCell id="mtOxxx0Fri_VdfMQ4Gxs-14" value="" style="rounded=1;whiteSpace=wrap;html=1;" vertex="1" parent="mtOxxx0Fri_VdfMQ4Gxs-1">
          <mxGeometry x="340" y="910" width="430" height="126" as="geometry" />
        </mxCell>
        <mxCell id="mtOxxx0Fri_VdfMQ4Gxs-15" value="&lt;div&gt;USDT&lt;/div&gt;&lt;div&gt;0x2e2e2e2e2e2e2e2e&lt;/div&gt;&lt;div&gt;$aaaa&lt;br&gt;&lt;/div&gt;" style="rounded=0;whiteSpace=wrap;html=1;" vertex="1" parent="mtOxxx0Fri_VdfMQ4Gxs-1">
          <mxGeometry x="350" y="938" width="200" height="90" as="geometry" />
        </mxCell>
        <mxCell id="mtOxxx0Fri_VdfMQ4Gxs-16" value="" style="shape=image;html=1;verticalAlign=top;verticalLabelPosition=bottom;labelBackgroundColor=#ffffff;imageAspect=0;aspect=fixed;image=https://cdn0.iconfinder.com/data/icons/cryptocurrency-blockchain-fintech-free/32/currency_dollar_currency_money-128.png" vertex="1" parent="mtOxxx0Fri_VdfMQ4Gxs-1">
          <mxGeometry x="350" y="930" width="48" height="48" as="geometry" />
        </mxCell>
        <mxCell id="mtOxxx0Fri_VdfMQ4Gxs-17" value="&lt;div&gt;BTC&lt;br&gt;&lt;/div&gt;&lt;div&gt;bc1mmmmmmmmm&lt;/div&gt;&lt;div&gt;0.00000000฿&lt;br&gt;&lt;/div&gt;" style="rounded=0;whiteSpace=wrap;html=1;" vertex="1" parent="mtOxxx0Fri_VdfMQ4Gxs-1">
          <mxGeometry x="560" y="938" width="200" height="90" as="geometry" />
        </mxCell>
        <mxCell id="mtOxxx0Fri_VdfMQ4Gxs-18" value="" style="shape=image;html=1;verticalAlign=top;verticalLabelPosition=bottom;labelBackgroundColor=#ffffff;imageAspect=0;aspect=fixed;image=https://cdn0.iconfinder.com/data/icons/blockchain-classic/258/Bitcoin-128.png" vertex="1" parent="mtOxxx0Fri_VdfMQ4Gxs-1">
          <mxGeometry x="560" y="938" width="30" height="30" as="geometry" />
        </mxCell>
        <mxCell id="mtOxxx0Fri_VdfMQ4Gxs-19" value="Target $9000" style="text;html=1;strokeColor=none;fillColor=none;align=center;verticalAlign=middle;whiteSpace=wrap;rounded=0;" vertex="1" parent="mtOxxx0Fri_VdfMQ4Gxs-1">
          <mxGeometry x="440" y="918" width="210" height="20" as="geometry" />
        </mxCell>
        <mxCell id="mtOxxx0Fri_VdfMQ4Gxs-20" value="&lt;span style=&quot;background-color: rgb(255 , 255 , 255)&quot;&gt;&lt;font style=&quot;font-size: 16px&quot; color=&quot;#007FFF&quot;&gt;&lt;b&gt;$500&lt;/b&gt;&lt;/font&gt;&lt;/span&gt;" style="text;html=1;strokeColor=none;fillColor=none;align=center;verticalAlign=middle;whiteSpace=wrap;rounded=0;" vertex="1" parent="mtOxxx0Fri_VdfMQ4Gxs-1">
          <mxGeometry x="506.25" y="992" width="97.5" height="36" as="geometry" />
        </mxCell>
        <mxCell id="mtOxxx0Fri_VdfMQ4Gxs-21" value="&lt;font style=&quot;font-size: 24px&quot;&gt;&lt;b&gt;BTC price: $9000&lt;/b&gt;&lt;/font&gt;" style="text;html=1;strokeColor=none;fillColor=none;align=center;verticalAlign=middle;whiteSpace=wrap;rounded=0;" vertex="1" parent="mtOxxx0Fri_VdfMQ4Gxs-1">
          <mxGeometry x="432.5" y="870" width="255" height="20" as="geometry" />
        </mxCell>
        <mxCell id="mtOxxx0Fri_VdfMQ4Gxs-22" value="Trade" style="html=1;shadow=0;dashed=0;align=center;verticalAlign=middle;shape=mxgraph.arrows2.arrow;dy=0.6;dx=40;notch=0;" vertex="1" parent="mtOxxx0Fri_VdfMQ4Gxs-1">
          <mxGeometry x="826.88" y="148" width="86.25" height="37" as="geometry" />
        </mxCell>
        <mxCell id="mtOxxx0Fri_VdfMQ4Gxs-24" value="Trade" style="html=1;shadow=0;dashed=0;align=center;verticalAlign=middle;shape=mxgraph.arrows2.arrow;dy=0.6;dx=40;flipH=1;notch=0;" vertex="1" parent="mtOxxx0Fri_VdfMQ4Gxs-1">
          <mxGeometry x="512.5" y="965" width="85" height="36" as="geometry" />
        </mxCell>
        <mxCell id="mtOxxx0Fri_VdfMQ4Gxs-25" value="" style="rounded=1;whiteSpace=wrap;html=1;" vertex="1" parent="mtOxxx0Fri_VdfMQ4Gxs-1">
          <mxGeometry x="340" y="230" width="430" height="126" as="geometry" />
        </mxCell>
        <mxCell id="mtOxxx0Fri_VdfMQ4Gxs-26" value="&lt;div&gt;USDT&lt;/div&gt;&lt;div&gt;0x8383838383838383&lt;/div&gt;&lt;div&gt;$9000&lt;br&gt;&lt;/div&gt;" style="rounded=0;whiteSpace=wrap;html=1;" vertex="1" parent="mtOxxx0Fri_VdfMQ4Gxs-1">
          <mxGeometry x="350" y="258" width="200" height="90" as="geometry" />
        </mxCell>
        <mxCell id="mtOxxx0Fri_VdfMQ4Gxs-27" value="" style="shape=image;html=1;verticalAlign=top;verticalLabelPosition=bottom;labelBackgroundColor=#ffffff;imageAspect=0;aspect=fixed;image=https://cdn0.iconfinder.com/data/icons/cryptocurrency-blockchain-fintech-free/32/currency_dollar_currency_money-128.png" vertex="1" parent="mtOxxx0Fri_VdfMQ4Gxs-1">
          <mxGeometry x="350" y="250" width="48" height="48" as="geometry" />
        </mxCell>
        <mxCell id="mtOxxx0Fri_VdfMQ4Gxs-28" value="&lt;div&gt;BTC&lt;br&gt;&lt;/div&gt;&lt;div&gt;bc1ppppppppppppp&lt;/div&gt;&lt;div&gt;0.00000000฿&lt;br&gt;&lt;/div&gt;" style="rounded=0;whiteSpace=wrap;html=1;" vertex="1" parent="mtOxxx0Fri_VdfMQ4Gxs-1">
          <mxGeometry x="560" y="258" width="200" height="90" as="geometry" />
        </mxCell>
        <mxCell id="mtOxxx0Fri_VdfMQ4Gxs-29" value="" style="shape=image;html=1;verticalAlign=top;verticalLabelPosition=bottom;labelBackgroundColor=#ffffff;imageAspect=0;aspect=fixed;image=https://cdn0.iconfinder.com/data/icons/blockchain-classic/258/Bitcoin-128.png" vertex="1" parent="mtOxxx0Fri_VdfMQ4Gxs-1">
          <mxGeometry x="560" y="258" width="30" height="30" as="geometry" />
        </mxCell>
        <mxCell id="mtOxxx0Fri_VdfMQ4Gxs-30" value="Target $9000" style="text;html=1;strokeColor=none;fillColor=none;align=center;verticalAlign=middle;whiteSpace=wrap;rounded=0;" vertex="1" parent="mtOxxx0Fri_VdfMQ4Gxs-1">
          <mxGeometry x="440" y="238" width="210" height="20" as="geometry" />
        </mxCell>
        <mxCell id="mtOxxx0Fri_VdfMQ4Gxs-31" value="&lt;span style=&quot;background-color: rgb(255 , 255 , 255)&quot;&gt;&lt;font style=&quot;font-size: 16px&quot; color=&quot;#007FFF&quot;&gt;&lt;b&gt;$500&lt;/b&gt;&lt;/font&gt;&lt;/span&gt;" style="text;html=1;strokeColor=none;fillColor=none;align=center;verticalAlign=middle;whiteSpace=wrap;rounded=0;" vertex="1" parent="mtOxxx0Fri_VdfMQ4Gxs-1">
          <mxGeometry x="506.25" y="312" width="97.5" height="36" as="geometry" />
        </mxCell>
        <mxCell id="mtOxxx0Fri_VdfMQ4Gxs-32" value="Trade" style="html=1;shadow=0;dashed=0;align=center;verticalAlign=middle;shape=mxgraph.arrows2.arrow;dy=0.6;dx=40;notch=0;" vertex="1" parent="mtOxxx0Fri_VdfMQ4Gxs-1">
          <mxGeometry x="826.88" y="288" width="86.25" height="37" as="geometry" />
        </mxCell>
        <mxCell id="mtOxxx0Fri_VdfMQ4Gxs-33" value="" style="rounded=1;whiteSpace=wrap;html=1;" vertex="1" parent="mtOxxx0Fri_VdfMQ4Gxs-1">
          <mxGeometry x="340" y="370" width="430" height="126" as="geometry" />
        </mxCell>
        <mxCell id="mtOxxx0Fri_VdfMQ4Gxs-34" value="&lt;div&gt;USDT&lt;/div&gt;&lt;div&gt;0x94949494949949494&lt;/div&gt;&lt;div&gt;$9000&lt;br&gt;&lt;/div&gt;" style="rounded=0;whiteSpace=wrap;html=1;" vertex="1" parent="mtOxxx0Fri_VdfMQ4Gxs-1">
          <mxGeometry x="350" y="398" width="200" height="90" as="geometry" />
        </mxCell>
        <mxCell id="mtOxxx0Fri_VdfMQ4Gxs-35" value="" style="shape=image;html=1;verticalAlign=top;verticalLabelPosition=bottom;labelBackgroundColor=#ffffff;imageAspect=0;aspect=fixed;image=https://cdn0.iconfinder.com/data/icons/cryptocurrency-blockchain-fintech-free/32/currency_dollar_currency_money-128.png" vertex="1" parent="mtOxxx0Fri_VdfMQ4Gxs-1">
          <mxGeometry x="350" y="390" width="48" height="48" as="geometry" />
        </mxCell>
        <mxCell id="mtOxxx0Fri_VdfMQ4Gxs-36" value="&lt;div&gt;BTC&lt;br&gt;&lt;/div&gt;&lt;div&gt;bc1qqqqqqqqqqqqq&lt;/div&gt;&lt;div&gt;0.00000000฿&lt;br&gt;&lt;/div&gt;" style="rounded=0;whiteSpace=wrap;html=1;" vertex="1" parent="mtOxxx0Fri_VdfMQ4Gxs-1">
          <mxGeometry x="560" y="398" width="200" height="90" as="geometry" />
        </mxCell>
        <mxCell id="mtOxxx0Fri_VdfMQ4Gxs-37" value="" style="shape=image;html=1;verticalAlign=top;verticalLabelPosition=bottom;labelBackgroundColor=#ffffff;imageAspect=0;aspect=fixed;image=https://cdn0.iconfinder.com/data/icons/blockchain-classic/258/Bitcoin-128.png" vertex="1" parent="mtOxxx0Fri_VdfMQ4Gxs-1">
          <mxGeometry x="560" y="398" width="30" height="30" as="geometry" />
        </mxCell>
        <mxCell id="mtOxxx0Fri_VdfMQ4Gxs-38" value="Target $9000" style="text;html=1;strokeColor=none;fillColor=none;align=center;verticalAlign=middle;whiteSpace=wrap;rounded=0;" vertex="1" parent="mtOxxx0Fri_VdfMQ4Gxs-1">
          <mxGeometry x="440" y="378" width="210" height="20" as="geometry" />
        </mxCell>
        <mxCell id="mtOxxx0Fri_VdfMQ4Gxs-39" value="&lt;span style=&quot;background-color: rgb(255 , 255 , 255)&quot;&gt;&lt;font style=&quot;font-size: 16px&quot; color=&quot;#007FFF&quot;&gt;&lt;b&gt;$750&lt;/b&gt;&lt;/font&gt;&lt;/span&gt;" style="text;html=1;strokeColor=none;fillColor=none;align=center;verticalAlign=middle;whiteSpace=wrap;rounded=0;" vertex="1" parent="mtOxxx0Fri_VdfMQ4Gxs-1">
          <mxGeometry x="506.25" y="452" width="97.5" height="36" as="geometry" />
        </mxCell>
        <mxCell id="mtOxxx0Fri_VdfMQ4Gxs-40" value="Trade" style="html=1;shadow=0;dashed=0;align=center;verticalAlign=middle;shape=mxgraph.arrows2.arrow;dy=0.6;dx=40;notch=0;" vertex="1" parent="mtOxxx0Fri_VdfMQ4Gxs-1">
          <mxGeometry x="826.88" y="428" width="86.25" height="37" as="geometry" />
        </mxCell>
        <mxCell id="mtOxxx0Fri_VdfMQ4Gxs-41" value="" style="rounded=1;whiteSpace=wrap;html=1;" vertex="1" parent="mtOxxx0Fri_VdfMQ4Gxs-1">
          <mxGeometry x="340" y="510" width="430" height="126" as="geometry" />
        </mxCell>
        <mxCell id="mtOxxx0Fri_VdfMQ4Gxs-42" value="&lt;div&gt;USDT&lt;/div&gt;&lt;div&gt;0xd8d8d8d8d8d8d8d8d8&lt;/div&gt;&lt;div&gt;$9000&lt;br&gt;&lt;/div&gt;" style="rounded=0;whiteSpace=wrap;html=1;" vertex="1" parent="mtOxxx0Fri_VdfMQ4Gxs-1">
          <mxGeometry x="350" y="538" width="200" height="90" as="geometry" />
        </mxCell>
        <mxCell id="mtOxxx0Fri_VdfMQ4Gxs-43" value="" style="shape=image;html=1;verticalAlign=top;verticalLabelPosition=bottom;labelBackgroundColor=#ffffff;imageAspect=0;aspect=fixed;image=https://cdn0.iconfinder.com/data/icons/cryptocurrency-blockchain-fintech-free/32/currency_dollar_currency_money-128.png" vertex="1" parent="mtOxxx0Fri_VdfMQ4Gxs-1">
          <mxGeometry x="350" y="530" width="48" height="48" as="geometry" />
        </mxCell>
        <mxCell id="mtOxxx0Fri_VdfMQ4Gxs-44" value="&lt;div&gt;BTC&lt;br&gt;&lt;/div&gt;&lt;div&gt;bc1wwwwwwwwwwww&lt;/div&gt;&lt;div&gt;0.00000000฿&lt;br&gt;&lt;/div&gt;" style="rounded=0;whiteSpace=wrap;html=1;" vertex="1" parent="mtOxxx0Fri_VdfMQ4Gxs-1">
          <mxGeometry x="560" y="538" width="200" height="90" as="geometry" />
        </mxCell>
        <mxCell id="mtOxxx0Fri_VdfMQ4Gxs-45" value="" style="shape=image;html=1;verticalAlign=top;verticalLabelPosition=bottom;labelBackgroundColor=#ffffff;imageAspect=0;aspect=fixed;image=https://cdn0.iconfinder.com/data/icons/blockchain-classic/258/Bitcoin-128.png" vertex="1" parent="mtOxxx0Fri_VdfMQ4Gxs-1">
          <mxGeometry x="560" y="538" width="30" height="30" as="geometry" />
        </mxCell>
        <mxCell id="mtOxxx0Fri_VdfMQ4Gxs-46" value="Target $9000" style="text;html=1;strokeColor=none;fillColor=none;align=center;verticalAlign=middle;whiteSpace=wrap;rounded=0;" vertex="1" parent="mtOxxx0Fri_VdfMQ4Gxs-1">
          <mxGeometry x="440" y="518" width="210" height="20" as="geometry" />
        </mxCell>
        <mxCell id="mtOxxx0Fri_VdfMQ4Gxs-47" value="&lt;span style=&quot;background-color: rgb(255 , 255 , 255)&quot;&gt;&lt;font style=&quot;font-size: 16px&quot; color=&quot;#007FFF&quot;&gt;&lt;b&gt;$1000&lt;/b&gt;&lt;/font&gt;&lt;/span&gt;" style="text;html=1;strokeColor=none;fillColor=none;align=center;verticalAlign=middle;whiteSpace=wrap;rounded=0;" vertex="1" parent="mtOxxx0Fri_VdfMQ4Gxs-1">
          <mxGeometry x="506.25" y="592" width="97.5" height="36" as="geometry" />
        </mxCell>
        <mxCell id="mtOxxx0Fri_VdfMQ4Gxs-52" value="" style="shape=mxgraph.signs.travel.bank;html=1;fillColor=#000000;strokeColor=none;verticalLabelPosition=bottom;verticalAlign=top;align=center;" vertex="1" parent="mtOxxx0Fri_VdfMQ4Gxs-1">
          <mxGeometry x="94" y="250" width="99" height="86" as="geometry" />
        </mxCell>
        <mxCell id="mtOxxx0Fri_VdfMQ4Gxs-53" value="Deposit" style="html=1;shadow=0;dashed=0;align=center;verticalAlign=middle;shape=mxgraph.arrows2.arrow;dy=0.6;dx=40;notch=0;" vertex="1" parent="mtOxxx0Fri_VdfMQ4Gxs-1">
          <mxGeometry x="204" y="266" width="110" height="70" as="geometry" />
        </mxCell>
        <mxCell id="mtOxxx0Fri_VdfMQ4Gxs-54" value="&lt;font style=&quot;font-size: 16px&quot;&gt;&lt;b&gt;&lt;font style=&quot;font-size: 16px&quot; color=&quot;#006600&quot;&gt;+$9000&lt;/font&gt;&lt;/b&gt;&lt;/font&gt;" style="text;html=1;strokeColor=none;fillColor=none;align=center;verticalAlign=middle;whiteSpace=wrap;rounded=0;" vertex="1" parent="mtOxxx0Fri_VdfMQ4Gxs-1">
          <mxGeometry x="194" y="258" width="97.5" height="36" as="geometry" />
        </mxCell>
        <mxCell id="mtOxxx0Fri_VdfMQ4Gxs-55" value="" style="shape=mxgraph.signs.travel.bank;html=1;fillColor=#000000;strokeColor=none;verticalLabelPosition=bottom;verticalAlign=top;align=center;" vertex="1" parent="mtOxxx0Fri_VdfMQ4Gxs-1">
          <mxGeometry x="94" y="390" width="99" height="86" as="geometry" />
        </mxCell>
        <mxCell id="mtOxxx0Fri_VdfMQ4Gxs-56" value="Deposit" style="html=1;shadow=0;dashed=0;align=center;verticalAlign=middle;shape=mxgraph.arrows2.arrow;dy=0.6;dx=40;notch=0;" vertex="1" parent="mtOxxx0Fri_VdfMQ4Gxs-1">
          <mxGeometry x="204" y="406" width="110" height="70" as="geometry" />
        </mxCell>
        <mxCell id="mtOxxx0Fri_VdfMQ4Gxs-57" value="&lt;font style=&quot;font-size: 16px&quot;&gt;&lt;b&gt;&lt;font style=&quot;font-size: 16px&quot; color=&quot;#006600&quot;&gt;+$9000&lt;/font&gt;&lt;/b&gt;&lt;/font&gt;" style="text;html=1;strokeColor=none;fillColor=none;align=center;verticalAlign=middle;whiteSpace=wrap;rounded=0;" vertex="1" parent="mtOxxx0Fri_VdfMQ4Gxs-1">
          <mxGeometry x="194" y="398" width="97.5" height="36" as="geometry" />
        </mxCell>
        <mxCell id="mtOxxx0Fri_VdfMQ4Gxs-58" value="" style="shape=mxgraph.signs.travel.bank;html=1;fillColor=#000000;strokeColor=none;verticalLabelPosition=bottom;verticalAlign=top;align=center;" vertex="1" parent="mtOxxx0Fri_VdfMQ4Gxs-1">
          <mxGeometry x="94" y="530" width="99" height="86" as="geometry" />
        </mxCell>
        <mxCell id="mtOxxx0Fri_VdfMQ4Gxs-59" value="Deposit" style="html=1;shadow=0;dashed=0;align=center;verticalAlign=middle;shape=mxgraph.arrows2.arrow;dy=0.6;dx=40;notch=0;" vertex="1" parent="mtOxxx0Fri_VdfMQ4Gxs-1">
          <mxGeometry x="204" y="546" width="110" height="70" as="geometry" />
        </mxCell>
        <mxCell id="mtOxxx0Fri_VdfMQ4Gxs-60" value="&lt;font style=&quot;font-size: 16px&quot;&gt;&lt;b&gt;&lt;font style=&quot;font-size: 16px&quot; color=&quot;#006600&quot;&gt;+$9000&lt;/font&gt;&lt;/b&gt;&lt;/font&gt;" style="text;html=1;strokeColor=none;fillColor=none;align=center;verticalAlign=middle;whiteSpace=wrap;rounded=0;" vertex="1" parent="mtOxxx0Fri_VdfMQ4Gxs-1">
          <mxGeometry x="194" y="538" width="97.5" height="36" as="geometry" />
        </mxCell>
      </root>
    </mxGraphModel>
  </diagram>
</mxfile>
